<svg width="23" height="23" viewBox="0 0 23 23" fill="none" xmlns="http://www.w3.org/2000/svg">
<g clip-path="url(#clip0_2_2)">
<path d="M7.93276 19.5035L3.49771 15.0673C2.7203 14.2911 2.10356 13.3693 1.68276 12.3546C1.26196 11.3399 1.04536 10.2521 1.04536 9.15354C1.04536 8.055 1.26196 6.96725 1.68276 5.9525C2.10356 4.93775 2.7203 4.01592 3.49771 3.23976L7.93276 7.6748L6.45403 9.15354C6.25979 9.34771 6.10572 9.57825 6.0006 9.83193C5.89548 10.0857 5.84137 10.3577 5.84137 10.6323C5.84137 10.9069 5.89548 11.1789 6.0006 11.4326C6.10572 11.6863 6.25979 11.9169 6.45403 12.111L10.8891 16.5461C11.0832 16.7403 11.3138 16.8944 11.5675 16.9995C11.8212 17.1046 12.0932 17.1588 12.3679 17.1588C12.6424 17.1588 12.9144 17.1046 13.1682 16.9995C13.4218 16.8944 13.6524 16.7403 13.8466 16.5461L15.3253 15.0673L19.7603 19.5035C18.1918 21.0719 16.0646 21.953 13.8466 21.953C11.6285 21.953 9.50124 21.0719 7.93276 19.5035Z" stroke="white" stroke-width="2" stroke-linecap="round" stroke-linejoin="round"/>
<path d="M13.591 1.04537C15.8091 1.04537 17.9365 1.92654 19.505 3.49502C21.0735 5.06351 21.9547 7.19084 21.9547 9.409" stroke="white" stroke-width="2.2" stroke-linecap="round" stroke-linejoin="round"/>
<path d="M17.7728 9.4089C17.7728 8.29981 17.3322 7.23615 16.5479 6.4519C15.7637 5.66766 14.7001 5.22709 13.591 5.22709" stroke="white" stroke-width="2.2" stroke-linecap="round" stroke-linejoin="round"/>
</g>
<defs>
<clipPath id="clip0_2_2">
<rect width="23" height="23" fill="white"/>
</clipPath>
</defs>
</svg>
