<svg xmlns="http://www.w3.org/2000/svg" width="23" height="19" viewBox="0 0 23 19">
  <defs>
    <style>
      .cls-1 {
        fill: #fff;
        fill-rule: evenodd;
      }
    </style>
  </defs>
  <path id="Фигура_2_копия_5" data-name="Фигура 2 копия 5" class="cls-1" d="M449.114,980.2c0.053,0.321.1,0.618,0.156,0.952h11.257c0.554,0,.642.089,0.644,0.65,0,0.24,0,.482,0,0.722a0.437,0.437,0,0,1-.522.53q-2.965,0-5.932,0c-1.785,0-3.569,0-5.353,0a1.861,1.861,0,0,1-1.96-1.67c-0.46-2.733-.908-5.468-1.362-8.2-0.179-1.079-.36-2.159-0.546-3.27h-2.955a0.453,0.453,0,0,1-.546-0.542c0-.3,0-0.589,0-0.884a0.42,0.42,0,0,1,.485-0.488c0.993,0,1.987,0,2.98,0a1.883,1.883,0,0,1,1.874,1.5c0.015,0.059.032,0.118,0.053,0.2h0.581q7.686,0,15.372,0a2.622,2.622,0,0,1,.6.042,1.37,1.37,0,0,1,.953,1.878c-0.325.913-.678,1.816-1.019,2.724-0.362.966-.741,1.925-1.079,2.9a2.345,2.345,0,0,1-2.175,1.681c-3.04.317-6.077,0.669-9.115,1.006-0.708.078-1.415,0.152-2.123,0.23C449.3,980.166,449.218,980.185,449.114,980.2Zm-0.322-1.923c0.092,0,.153,0,0.213,0q2.737-.3,5.476-0.607c2.017-.224,4.034-0.454,6.052-0.667a0.5,0.5,0,0,0,.477-0.368c0.588-1.594,1.188-3.183,1.784-4.774,0.029-.077.052-0.157,0.079-0.243H447.69ZM461.024,987a1.7,1.7,0,1,1,1.669-1.711A1.7,1.7,0,0,1,461.024,987Zm-9.66-1.686a1.672,1.672,0,1,1-1.667-1.711A1.7,1.7,0,0,1,451.364,985.318Z" transform="translate(-442 -968)"/>
</svg>
