<svg xmlns="http://www.w3.org/2000/svg" width="31.03" height="25" viewBox="0 0 31.03 25">
  <defs>
    <style>
      .cls-1 {
        fill: #fff;
        fill-rule: evenodd;
      }
    </style>
  </defs>
  <path id="Фигура_2" data-name="Фигура 2" class="cls-1" d="M1421.6,102.056c0.07,0.424.13,0.814,0.21,1.254H1437c0.74,0,.86.117,0.87,0.854v0.951a0.586,0.586,0,0,1-.71.7c-2.67,0-5.33,0-8,0-2.41,0-4.82,0-7.22,0a2.493,2.493,0,0,1-2.65-2.2c-0.62-3.595-1.22-7.193-1.84-10.789-0.24-1.421-.48-2.841-0.73-4.3h-3.99a0.607,0.607,0,0,1-.74-0.713c0-.388,0-0.776.01-1.163a0.553,0.553,0,0,1,.65-0.642q2.01-.005,4.02,0a2.528,2.528,0,0,1,2.53,1.969c0.02,0.078.04,0.155,0.07,0.26h0.78q10.38,0,20.74,0a3.766,3.766,0,0,1,.82.055,1.8,1.8,0,0,1,1.28,2.472c-0.44,1.2-.91,2.389-1.37,3.583-0.49,1.271-1,2.534-1.46,3.815a3.146,3.146,0,0,1-2.93,2.211c-4.11.418-8.2,0.88-12.3,1.324-0.96.1-1.91,0.2-2.87,0.3C1421.85,102.009,1421.74,102.033,1421.6,102.056Zm-0.44-2.53c0.13,0,.21.007,0.29,0,2.46-.265,4.93-0.532,7.39-0.8,2.72-.294,5.44-0.6,8.16-0.877a0.669,0.669,0,0,0,.65-0.484c0.79-2.1,1.6-4.188,2.4-6.281,0.04-.1.07-0.208,0.11-0.319h-20.48C1420.17,93.7,1420.67,96.6,1421.16,99.526Zm16.51,11.48a2.236,2.236,0,1,1,2.25-2.252A2.265,2.265,0,0,1,1437.67,111.006Zm-13.04-2.219a2.255,2.255,0,1,1-2.24-2.252A2.253,2.253,0,0,1,1424.63,108.787Z" transform="translate(-1412 -86)"/>
</svg>
