<svg width="24" height="24" viewBox="0 0 24 24" fill="none" xmlns="http://www.w3.org/2000/svg">
<g clip-path="url(#clip0_131_2)">
<path d="M8.27767 20.3515L3.64979 15.7224C2.83858 14.9125 2.19502 13.9506 1.75593 12.8918C1.31683 11.8329 1.09082 10.6978 1.09082 9.55152C1.09082 8.40522 1.31683 7.27017 1.75593 6.2113C2.19502 5.15243 2.83858 4.19052 3.64979 3.38062L8.27767 8.00849L6.73464 9.55152C6.53196 9.75413 6.37119 9.99469 6.2615 10.2594C6.15181 10.5242 6.09535 10.808 6.09535 11.0946C6.09535 11.3811 6.15181 11.6649 6.2615 11.9297C6.37119 12.1944 6.53196 12.435 6.73464 12.6376L11.3625 17.2655C11.5651 17.4681 11.8057 17.6289 12.0704 17.7386C12.3352 17.8483 12.619 17.9048 12.9056 17.9048C13.1921 17.9048 13.4759 17.8483 13.7407 17.7386C14.0054 17.6289 14.246 17.4681 14.4486 17.2655L15.9916 15.7224L20.6195 20.3515C18.9828 21.9881 16.7631 22.9075 14.4486 22.9075C12.1341 22.9075 9.91434 21.9881 8.27767 20.3515V20.3515Z" stroke="#7AB0C7" stroke-width="2.2" stroke-linecap="round" stroke-linejoin="round"/>
<path d="M14.1819 1.09082C16.4965 1.09082 18.7163 2.0103 20.353 3.64698C21.9897 5.28366 22.9092 7.50348 22.9092 9.81809" stroke="#7AB0C7" stroke-width="2.2" stroke-linecap="round" stroke-linejoin="round"/>
<path d="M18.5455 9.81798C18.5455 8.66067 18.0858 7.55077 17.2674 6.73242C16.4491 5.91408 15.3392 5.45435 14.1819 5.45435" stroke="#7AB0C7" stroke-width="2.2" stroke-linecap="round" stroke-linejoin="round"/>
</g>
<defs>
<clipPath id="clip0_131_2">
<rect width="24" height="24" fill="white"/>
</clipPath>
</defs>
</svg>
